<svg xmlns="http://www.w3.org/2000/svg" xmlns:xlink="http://www.w3.org/1999/xlink" width="1300px" height="499px" viewBox="0 0 1300 499" version="1.1">
    <!-- Generator: Sketch 46.1 (44463) - http://www.bohemiancoding.com/sketch -->
    <title>wave_background</title>
    <desc fill="#13644a">Created with Sketch.</desc>
    <defs fill="#13644a">
        <radialGradient cx="116.70788%" cy="110.133192%" fx="116.70788%" fy="110.133192%" r="147.799618%" gradientTransform="translate(1.167079,1.101332),scale(0.357923,1.000000),rotate(-160.534454),translate(-1.167079,-1.101332)" id="radialGradient-1" fill="#13644a">
            <stop stop-color="#13644a" offset="0%" fill="#13644a"/>
            <stop stop-color="#13644a" offset="2.91250472%" fill="#13644a"/>
            <stop stop-color="#13644a" offset="4.5053357%" fill="#13644a"/>
            <stop stop-color="#13644a" offset="6.00516035%" fill="#13644a"/>
            <stop stop-color="#13644a" offset="25.4821693%" fill="#13644a"/>
            <stop stop-color="#13644a" offset="100%" fill="#13644a"/>
        </radialGradient>
    </defs>
    <g id="Ressource" stroke="none" stroke-width="1" fill="none" fill-rule="evenodd">
        <g id="wave_background">
            <g id="Group-4">
                <path d="M0,1.89326617e-29 L1300,-2.84217094e-14 C1299.84369,99.0658466 1299.84369,259.045733 1300,479.93966 C939.379367,522.288692 978.893507,439.694844 650,450.952014 C321.106493,462.209185 306.589562,511.200484 0,450.952014 C1,327.508342 1,177.191004 0,1.89326617e-29 Z" id="Wave" fill="#c4c4c4" opacity="0.15"/>
                <path d="M1.00076864,0 L925.701255,0 L1302,0 C1302,223.960943 1302,366.849893 1302,428.66685 C1221.6052,416.744841 1147.81368,399.334739 958.281774,416.744841 C768.749863,434.154944 701.824308,503.789515 426.321989,437.77475 C242.653776,393.764907 100.880036,397.003272 1.00076864,447.489845 L1.00076864,0 Z" id="Wave" fill="url(#radialGradient-1)" transform="translate(651.500384, 232.828869) scale(-1, 1) translate(-651.500384, -232.828869) "/>
            </g>
        </g>
    </g>
</svg>